HIERARCHY
ROOT Root
{
  OFFSET 0.0 0.0 0.0
  CHANNELS 6 Xposition Yposition Zposition Zrotation Yrotation Xrotation
  JOINT Hips
  {
    OFFSET 0.0 100.0 0.0
    CHANNELS 6 Xposition Yposition Zposition Zrotation Yrotation Xrotation
    JOINT Spine1
    {
      OFFSET -0.013727 5.003763 -0.053727
      CHANNELS 3 Zrotation Yrotation Xrotation
      JOINT Spine2
      {
        OFFSET -0.0 7.125301 -0.029825
        CHANNELS 3 Zrotation Yrotation Xrotation
        JOINT Chest
        {
          OFFSET -1e-06 7.550063 -0.815971
          CHANNELS 3 Zrotation Yrotation Xrotation
          JOINT Neck1
          {
            OFFSET -0.181677 26.311295 -0.553348
            CHANNELS 3 Zrotation Yrotation Xrotation
            JOINT Neck2
            {
              OFFSET -3e-06 7.709397 2.302585
              CHANNELS 3 Zrotation Yrotation Xrotation
              JOINT Head
              {
                OFFSET -5e-06 6.128916 1.953709
                CHANNELS 3 Zrotation Yrotation Xrotation
                JOINT HeadEnd
                {
                  OFFSET 0.003598 16.065403 -1.835379
                  CHANNELS 3 Zrotation Yrotation Xrotation
                }
                JOINT Jaw
                {
                  OFFSET 0.002637 0.475592 3.094941
                  CHANNELS 3 Zrotation Yrotation Xrotation
                }
                JOINT LeftEye
                {
                  OFFSET 3.206381 5.380205 7.586883
                  CHANNELS 3 Zrotation Yrotation Xrotation
                }
                JOINT RightEye
                {
                  OFFSET -3.22244 5.361869 7.558234
                  CHANNELS 3 Zrotation Yrotation Xrotation
                }
              }
            }
          }
          JOINT LeftShoulder
          {
            OFFSET 1.621652 23.237164 5.113413
            CHANNELS 3 Zrotation Yrotation Xrotation
            JOINT LeftArm
            {
              OFFSET 14.919846 2e-06 -5.502326
              CHANNELS 3 Zrotation Yrotation Xrotation
              JOINT LeftForeArm
              {
                OFFSET 28.739307 0.0 -0.002588
                CHANNELS 3 Zrotation Yrotation Xrotation
                JOINT LeftHand
                {
                  OFFSET 27.093981 -1e-06 0.002609
                  CHANNELS 3 Zrotation Yrotation Xrotation
                  JOINT LeftHandThumb1
                  {
                    OFFSET 2.276482 -1.392045 3.191413
                    CHANNELS 3 Zrotation Yrotation Xrotation
                    JOINT LeftHandThumb2
                    {
                      OFFSET 4.012836 -1.828127 1.641654
                      CHANNELS 3 Zrotation Yrotation Xrotation
                      JOINT LeftHandThumb3
                      {
                        OFFSET 2.798515 0.0 -3e-06
                        CHANNELS 3 Zrotation Yrotation Xrotation
                        JOINT LeftHandThumbEnd
                        {
                          OFFSET 3.180793 -4e-06 4e-06
                          CHANNELS 3 Zrotation Yrotation Xrotation
                        }
                      }
                    }
                  }
                  JOINT LeftHandIndex1
                  {
                    OFFSET 3.247555 -0.531998 2.296169
                    CHANNELS 3 Zrotation Yrotation Xrotation
                    JOINT LeftHandIndex2
                    {
                      OFFSET 6.364578 0.01206 0.1786
                      CHANNELS 3 Zrotation Yrotation Xrotation
                      JOINT LeftHandIndex3
                      {
                        OFFSET 3.662364 0.0 0.0
                        CHANNELS 3 Zrotation Yrotation Xrotation
                        JOINT LeftHandIndex4
                        {
                          OFFSET 2.329242 4e-06 4e-06
                          CHANNELS 3 Zrotation Yrotation Xrotation
                          JOINT LeftHandIndexEnd
                          {
                            OFFSET 2.759615 -0.180537 -0.113024
                            CHANNELS 3 Zrotation Yrotation Xrotation
                          }
                        }
                      }
                    }
                  }
                  JOINT LeftHandMiddle1
                  {
                    OFFSET 3.163495 0.240981 1.000332
                    CHANNELS 3 Zrotation Yrotation Xrotation
                    JOINT LeftHandMiddle2
                    {
                      OFFSET 6.19078 -0.259278 -1.002548
                      CHANNELS 3 Zrotation Yrotation Xrotation
                      JOINT LeftHandMiddle3
                      {
                        OFFSET 4.35652 -4e-06 -1e-06
                        CHANNELS 3 Zrotation Yrotation Xrotation
                        JOINT LeftHandMiddle4
                        {
                          OFFSET 2.996877 -8e-06 0.0
                          CHANNELS 3 Zrotation Yrotation Xrotation
                          JOINT LeftHandMiddleEnd
                          {
                            OFFSET 2.304287 -0.294569 -0.031741
                            CHANNELS 3 Zrotation Yrotation Xrotation
                          }
                        }
                      }
                    }
                  }
                  JOINT LeftHandRing1
                  {
                    OFFSET 2.882643 -0.053652 -0.322543
                    CHANNELS 3 Zrotation Yrotation Xrotation
                    JOINT LeftHandRing2
                    {
                      OFFSET 5.854541 -0.486202 -1.373841
                      CHANNELS 3 Zrotation Yrotation Xrotation
                      JOINT LeftHandRing3
                      {
                        OFFSET 4.350578 0.0 3e-06
                        CHANNELS 3 Zrotation Yrotation Xrotation
                        JOINT LeftHandRing4
                        {
                          OFFSET 2.651321 7e-06 2e-06
                          CHANNELS 3 Zrotation Yrotation Xrotation
                          JOINT LeftHandRingEnd
                          {
                            OFFSET 1.936105 0.077687 -7.1e-05
                            CHANNELS 3 Zrotation Yrotation Xrotation
                          }
                        }
                      }
                    }
                  }
                  JOINT LeftHandPinky1
                  {
                    OFFSET 2.8655 -0.310005 -1.600378
                    CHANNELS 3 Zrotation Yrotation Xrotation
                    JOINT LeftHandPinky2
                    {
                      OFFSET 5.087849 -1.331141 -1.77123
                      CHANNELS 3 Zrotation Yrotation Xrotation
                      JOINT LeftHandPinky3
                      {
                        OFFSET 3.070974 4e-06 0.0
                        CHANNELS 3 Zrotation Yrotation Xrotation
                        JOINT LeftHandPinky4
                        {
                          OFFSET 1.549672 0.0 1e-06
                          CHANNELS 3 Zrotation Yrotation Xrotation
                          JOINT LeftHandPinkyEnd
                          {
                            OFFSET 1.944893 -0.157802 0.057219
                            CHANNELS 3 Zrotation Yrotation Xrotation
                          }
                        }
                      }
                    }
                  }
                }
              }
            }
          }
          JOINT RightShoulder
          {
            OFFSET -1.380118 23.180309 5.214158
            CHANNELS 3 Zrotation Yrotation Xrotation
            JOINT RightArm
            {
              OFFSET -15.037196 1.2e-05 -5.545604
              CHANNELS 3 Zrotation Yrotation Xrotation
              JOINT RightForeArm
              {
                OFFSET -28.736639 2e-06 -0.002597
                CHANNELS 3 Zrotation Yrotation Xrotation
                JOINT RightHand
                {
                  OFFSET -27.133619 -0.0 0.002613
                  CHANNELS 3 Zrotation Yrotation Xrotation
                  JOINT RightHandThumb1
                  {
                    OFFSET -2.274032 -1.383988 3.163127
                    CHANNELS 3 Zrotation Yrotation Xrotation
                    JOINT RightHandThumb2
                    {
                      OFFSET -4.011429 -1.827466 1.640914
                      CHANNELS 3 Zrotation Yrotation Xrotation
                      JOINT RightHandThumb3
                      {
                        OFFSET -2.794935 -4e-06 -3e-06
                        CHANNELS 3 Zrotation Yrotation Xrotation
                        JOINT RightHandThumbEnd
                        {
                          OFFSET -3.183852 4e-06 1e-06
                          CHANNELS 3 Zrotation Yrotation Xrotation
                        }
                      }
                    }
                  }
                  JOINT RightHandIndex1
                  {
                    OFFSET -3.253266 -0.520057 2.282866
                    CHANNELS 3 Zrotation Yrotation Xrotation
                    JOINT RightHandIndex2
                    {
                      OFFSET -6.341917 0.012471 0.178266
                      CHANNELS 3 Zrotation Yrotation Xrotation
                      JOINT RightHandIndex3
                      {
                        OFFSET -3.654871 -8e-06 -0.0
                        CHANNELS 3 Zrotation Yrotation Xrotation
                        JOINT RightHandIndex4
                        {
                          OFFSET -2.327586 0.0 1e-06
                          CHANNELS 3 Zrotation Yrotation Xrotation
                          JOINT RightHandIndexEnd
                          {
                            OFFSET -2.76179 -0.180656 -0.113078
                            CHANNELS 3 Zrotation Yrotation Xrotation
                          }
                        }
                      }
                    }
                  }
                  JOINT RightHandMiddle1
                  {
                    OFFSET -3.168106 0.246593 1.00103
                    CHANNELS 3 Zrotation Yrotation Xrotation
                    JOINT RightHandMiddle2
                    {
                      OFFSET -6.180828 -0.258836 -1.000895
                      CHANNELS 3 Zrotation Yrotation Xrotation
                      JOINT RightHandMiddle3
                      {
                        OFFSET -4.348901 0.0 -0.0
                        CHANNELS 3 Zrotation Yrotation Xrotation
                        JOINT RightHandMiddle4
                        {
                          OFFSET -3.00024 -4e-06 -2e-06
                          CHANNELS 3 Zrotation Yrotation Xrotation
                          JOINT RightHandMiddleEnd
                          {
                            OFFSET -2.30252 -0.29437 -0.031706
                            CHANNELS 3 Zrotation Yrotation Xrotation
                          }
                        }
                      }
                    }
                  }
                  JOINT RightHandRing1
                  {
                    OFFSET -2.88569 -0.067952 -0.308858
                    CHANNELS 3 Zrotation Yrotation Xrotation
                    JOINT RightHandRing2
                    {
                      OFFSET -5.854198 -0.48613 -1.373731
                      CHANNELS 3 Zrotation Yrotation Xrotation
                      JOINT RightHandRing3
                      {
                        OFFSET -4.33881 -4e-06 -0.0
                        CHANNELS 3 Zrotation Yrotation Xrotation
                        JOINT RightHandRing4
                        {
                          OFFSET -2.654903 -4e-06 4e-06
                          CHANNELS 3 Zrotation Yrotation Xrotation
                          JOINT RightHandRingEnd
                          {
                            OFFSET -1.933568 0.077527 -5.2e-05
                            CHANNELS 3 Zrotation Yrotation Xrotation
                          }
                        }
                      }
                    }
                  }
                  JOINT RightHandPinky1
                  {
                    OFFSET -2.866425 -0.342796 -1.584145
                    CHANNELS 3 Zrotation Yrotation Xrotation
                    JOINT RightHandPinky2
                    {
                      OFFSET -5.091371 -1.332055 -1.772385
                      CHANNELS 3 Zrotation Yrotation Xrotation
                      JOINT RightHandPinky3
                      {
                        OFFSET -3.062664 -4e-06 1e-06
                        CHANNELS 3 Zrotation Yrotation Xrotation
                        JOINT RightHandPinky4
                        {
                          OFFSET -1.546529 4e-06 -2e-06
                          CHANNELS 3 Zrotation Yrotation Xrotation
                          JOINT RightHandPinkyEnd
                          {
                            OFFSET -1.945119 -0.157718 0.057211
                            CHANNELS 3 Zrotation Yrotation Xrotation
                          }
                        }
                      }
                    }
                  }
                }
              }
            }
          }
        }
      }
    }
    JOINT LeftLeg
    {
      OFFSET 10.043214 -8.434526 2.595655
      CHANNELS 3 Zrotation Yrotation Xrotation
      JOINT LeftShin
      {
        OFFSET -1e-06 -43.221752 -0.802913
        CHANNELS 3 Zrotation Yrotation Xrotation
        JOINT LeftFoot
        {
          OFFSET 1e-06 -42.155094 -3.481523
          CHANNELS 3 Zrotation Yrotation Xrotation
          JOINT LeftToeBase
          {
            OFFSET 0.0 -5.059472 13.231529
            CHANNELS 3 Zrotation Yrotation Xrotation
            JOINT LeftToeEnd
            {
              OFFSET -0.009607 -1.647619 6.513017
              CHANNELS 3 Zrotation Yrotation Xrotation
            }
          }
        }
      }
    }
    JOINT RightLeg
    {
      OFFSET -10.047278 -8.29526 2.620317
      CHANNELS 3 Zrotation Yrotation Xrotation
      JOINT RightShin
      {
        OFFSET 1e-06 -43.362206 -0.805556
        CHANNELS 3 Zrotation Yrotation Xrotation
        JOINT RightFoot
        {
          OFFSET 2e-06 -42.117393 -3.478398
          CHANNELS 3 Zrotation Yrotation Xrotation
          JOINT RightToeBase
          {
            OFFSET -0.0 -5.079609 13.284196
            CHANNELS 3 Zrotation Yrotation Xrotation
            JOINT RightToeEnd
            {
              OFFSET 0.009532 -1.634378 6.460591
              CHANNELS 3 Zrotation Yrotation Xrotation
            }
          }
        }
      }
    }
  }
}
MOTION
Frames: 4
Frame Time: 0.03333333333333333
0.0 0.0 0.0 0.0 -0.0 0.0 1.467166 92.553314 -3.756907 1.876429 0.294769 3.066356 -0.045541 0.812608 0.266321 -0.931043 2.96503 -4.438902 -1.782643 1.839965 14.411654 -1.599988 2.321378 -4.169463 -0.948991 -0.398276 -3.694957 1.596809 -2.605792 -7.560502 7.7e-05 -2.3e-05 6e-06 0.019523 0.03829 -0.038172 0.674948 -3.735938 -10.804903 -0.650461 3.816849 -10.795796 -9.996519 -2.171527 13.608066 -70.923241 6.987624 20.726616 -1.326875 -34.832359 0.897572 8.205766 7.850703 -15.116179 -5.882111 9.861292 0.702591 -10.936878 -0.360573 7.156208 -0.0 8.774831 -1e-06 -16.255074 17.818523 6.080821 -1.844033 2.498506 -2.507278 -10.163607 4.67895 4.621111 -20.976034 -0.0 3e-06 -21.226301 2.451702 -3.594002 -0.0 -6e-06 0.0 -1.362682 2.240799 -0.746323 -21.334927 0.584913 3.008325 -13.821221 -0.0 2e-06 -23.887184 -0.249076 -0.839484 -61.122742 2.234275 -1.143123 -0.294025 1.679688 0.833256 -14.218215 0.093216 1.300581 -34.212067 -0.28756 0.96717 -20.033226 0.964539 1.212843 -1e-06 -1e-06 0.0 -3.440391 0.788234 0.501656 -15.928194 -3.16731 2.999709 -6.33883 -0.0 1e-06 -18.123459 3.648188 -4.905674 -5e-06 -0.0 -2e-06 11.980844 12.439277 15.309968 74.929543 -2.737235 4.347052 -2.694612 43.402081 -1.708696 -3.716378 -8.932598 -12.813214 2.243544 -5.255042 -3.18016 14.282902 -0.826596 6.952506 -2e-06 -12.690618 -0.0 16.464407 -17.95458 2.276456 1.665668 -1.955924 -2.878302 4.727803 -4.170593 4.993927 11.020536 2e-06 -2e-06 12.109061 -3.73572 -2.866789 2e-06 0.0 1e-06 1.291987 -1.928551 -1.498091 14.800139 0.567468 3.865609 14.242585 -1.341738 -6.660665 19.631985 0.143926 -0.648247 50.385345 -0.793163 -6.386353 0.35303 -1.511153 -0.03194 20.222809 3.684313 2.31663 18.787291 5e-06 -3e-06 10.751637 -0.479869 1.397905 0.0 -0.0 -0.0 3.27381 0.305947 -0.580112 21.486832 11.830387 2.266134 8.162934 1e-06 -2e-06 18.399099 -3.798989 -4.940583 4e-06 0.0 -1e-06 -6.168147 2.125531 -33.593346 0.008793 0.121561 -1.070959 -15.666067 17.188416 6.348602 1.418236 -2.159578 -4.677826 0.0 0.0 3e-06 -0.068041 -7.169699 27.748192 -0.204628 -0.192581 2.159736 0.086113 -4.900194 1.15394 -1.397158 0.690592 -12.400676 0.0 0.0 -1e-06 
0.0 0.0 0.0 0.0 -0.0 0.0 1.976971 92.222198 1.471457 4.268048 -0.499981 3.798691 -1.595821 0.922687 -0.564158 -1.10461 3.20861 -4.784496 -2.678225 1.886848 14.272864 -0.893364 2.237994 -5.402369 -0.94572 -0.501354 -3.782706 1.807581 -3.047158 -6.611823 7.7e-05 -2.3e-05 6e-06 0.009414 -0.025112 -0.068057 0.674502 -3.776202 -10.761645 -0.669239 3.729821 -10.739432 -10.897393 -2.049376 13.600834 -69.121635 8.577613 21.031517 -1.526119 -33.670265 0.676503 7.64853 7.160793 -15.660699 -5.882107 9.86129 0.702591 -10.936873 -0.360573 7.156208 -1e-06 8.774828 -1e-06 -16.091013 18.044592 6.424492 -1.844033 2.498505 -2.507278 -10.163602 4.678948 4.621109 -20.97603 -2e-06 3e-06 -21.226288 2.4517 -3.594001 1e-06 -7e-06 -0.0 -1.362682 2.240799 -0.746323 -21.334917 0.584912 3.008325 -13.821213 -1e-06 2e-06 -23.887175 -0.249076 -0.839482 -61.55336 2.174429 -0.826298 -0.294025 1.679688 0.833256 -14.218211 0.093216 1.300582 -34.212059 -0.287561 0.967172 -20.033216 0.964539 1.212844 -1e-06 -1e-06 -0.0 -3.440389 0.788234 0.501656 -15.928189 -3.16731 2.999709 -6.338826 -0.0 1e-06 -18.123447 3.648186 -4.905671 -5e-06 0.0 -1e-06 13.684541 12.168374 15.079491 74.024826 -4.620935 5.996459 -2.527455 39.658535 -1.491565 -2.515763 -10.182136 -12.958847 2.243542 -5.255037 -3.180157 14.282894 -0.826594 6.952502 -2e-06 -12.690605 -0.0 16.187267 -17.661579 2.614008 1.665666 -1.955922 -2.878299 4.727799 -4.170588 4.993925 11.020529 3e-06 -1e-06 12.109053 -3.735717 -2.866784 2e-06 -0.0 0.0 1.291986 -1.92855 -1.498089 14.800129 0.567468 3.865607 14.242574 -1.341736 -6.660657 19.631969 0.143926 -0.648244 50.138687 -0.696944 -6.247074 0.353029 -1.511151 -0.03194 20.222795 3.68431 2.316629 18.787273 5e-06 -1e-06 10.75163 -0.479869 1.397907 -1e-06 -0.0 1e-06 3.273807 0.305947 -0.580111 21.486818 11.830377 2.266134 8.162929 2e-06 -1e-06 18.399088 -3.798985 -4.940577 5e-06 0.0 -1e-06 -8.940727 0.161563 -35.171177 -0.161043 0.183663 5.619602 -8.551819 16.050732 8.510961 1.571418 -2.131392 -4.344345 -0.0 -1e-06 1e-06 -3.760594 -7.403784 29.037945 -0.128759 0.02559 3.841962 0.036573 -4.126323 4.741365 -1.404235 0.621834 -18.786102 -0.0 1e-06 -0.0 
0.0 0.0 0.0 0.0 -0.0 0.0 2.49509 92.247734 7.042195 7.642302 -0.653378 3.900654 -3.41808 0.898383 -1.202443 -1.529813 3.415237 -5.244023 -4.37388 1.883468 14.556424 0.595939 1.940467 -6.089844 -1.084067 -0.832262 -3.804596 2.100345 -3.463519 -6.201286 7.7e-05 -2.3e-05 6e-06 0.018332 -0.013179 -0.1153 0.693662 -3.745736 -10.738141 -0.669367 3.72345 -10.719681 -11.300278 -2.49141 13.674211 -66.875809 9.506364 23.074062 -1.059522 -31.896219 0.528823 6.692233 6.541691 -17.580574 -5.88211 9.861292 0.70259 -10.93688 -0.360575 7.156209 1e-06 8.774831 -2e-06 -15.986852 18.274149 6.534219 -1.844033 2.498507 -2.507279 -10.163607 4.678947 4.621109 -20.976036 -4e-06 2e-06 -21.226299 2.451698 -3.594002 0.0 -6e-06 -0.0 -1.362682 2.240799 -0.746324 -21.334929 0.584908 3.008324 -13.821223 -4e-06 2e-06 -23.887184 -0.24908 -0.839483 -61.302731 2.177227 -0.738011 -0.294025 1.679688 0.833256 -14.218219 0.093214 1.300581 -34.212078 -0.287565 0.967172 -20.03323 0.964535 1.212845 0.0 -0.0 0.0 -3.440391 0.788234 0.501656 -15.9282 -3.167312 2.999709 -6.338831 -1e-06 1e-06 -18.123463 3.648185 -4.905674 -6e-06 0.0 -1e-06 15.580997 11.399541 15.180042 73.675293 -6.151055 5.958098 -2.057756 37.186012 -1.020368 -1.938531 -11.610652 -11.882627 2.243544 -5.255041 -3.180159 14.2829 -0.826596 6.952504 -2e-06 -12.690614 -1e-06 16.05862 -17.718504 2.797871 1.665668 -1.955923 -2.8783 4.727802 -4.170591 4.993925 11.020535 2e-06 -2e-06 12.10906 -3.735719 -2.866788 0.0 0.0 0.0 1.291987 -1.928551 -1.498089 14.800139 0.567468 3.865609 14.242584 -1.341738 -6.660663 19.631983 0.143927 -0.648247 49.999805 -0.524071 -6.427669 0.353029 -1.511152 -0.03194 20.222803 3.684312 2.316628 18.787287 5e-06 -4e-06 10.751634 -0.479867 1.397904 -1e-06 0.0 -0.0 3.273809 0.305947 -0.580111 21.486828 11.830384 2.266132 8.162933 2e-06 -3e-06 18.399096 -3.798986 -4.940582 6e-06 0.0 -0.0 -12.316549 -3.168647 -36.785358 0.058236 0.33042 15.001922 0.504677 16.051374 10.648811 1.716425 -2.164709 -2.782195 0.0 -0.0 2e-06 -7.558732 -6.574856 28.937771 -0.228653 0.243026 9.078821 0.469387 -4.522098 10.117419 -1.442608 0.6362 -25.85553 -0.0 0.0 -1e-06 
0.0 0.0 0.0 0.0 -0.0 0.0 2.835135 92.556343 12.789037 9.980107 -0.520654 2.809906 -4.329198 0.881615 -1.107245 -1.83931 3.392115 -5.267924 -5.891396 1.795108 14.661961 1.729815 1.67939 -5.398244 -1.306206 -1.135588 -3.735616 2.299636 -3.451672 -6.545842 7.7e-05 -2.2e-05 6e-06 0.020594 0.007545 -0.122847 0.713325 -3.705845 -10.687203 -0.683885 3.720694 -10.67931 -10.223073 -3.168197 14.050058 -66.207108 9.230766 25.340164 -0.709134 -29.970478 0.430441 6.056992 6.536108 -18.565277 -5.882106 9.861286 0.70259 -10.936872 -0.360574 7.156204 -0.0 8.774825 -1e-06 -15.936512 18.285755 6.558733 -1.844032 2.498505 -2.507277 -10.163599 4.678946 4.621108 -20.976021 -3e-06 2e-06 -21.226286 2.451698 -3.594002 -0.0 -6e-06 -0.0 -1.362682 2.240798 -0.746323 -21.334913 0.58491 3.008324 -13.82121 -2e-06 2e-06 -23.887165 -0.249078 -0.839484 -60.940266 2.274398 -0.850578 -0.294025 1.679687 0.833255 -14.218206 0.093215 1.30058 -34.212048 -0.287563 0.96717 -20.033213 0.964535 1.212843 -1e-06 1e-06 0.0 -3.440388 0.788234 0.501656 -15.928185 -3.16731 2.999707 -6.338826 -1e-06 1e-06 -18.123444 3.648184 -4.905672 -6e-06 1e-06 -1e-06 15.123463 10.66729 15.21002 75.28495 -7.678812 5.605298 -1.821339 37.44376 -0.729206 -2.04658 -12.062522 -11.781116 2.243543 -5.25504 -3.180159 14.282902 -0.826596 6.952507 -2e-06 -12.690612 -0.0 16.04829 -17.787022 2.787398 1.665667 -1.955922 -2.8783 4.727802 -4.170591 4.993927 11.020534 2e-06 -1e-06 12.109059 -3.735719 -2.866786 1e-06 -0.0 0.0 1.291986 -1.928551 -1.49809 14.800139 0.567468 3.86561 14.242582 -1.341737 -6.660661 19.631985 0.143926 -0.648245 50.051868 -0.242587 -6.509594 0.353029 -1.511152 -0.03194 20.222803 3.684311 2.316632 18.787287 3e-06 -0.0 10.751636 -0.479869 1.397907 0.0 0.0 0.0 3.273809 0.305947 -0.580111 21.486828 11.830381 2.266135 8.16293 1e-06 -0.0 18.399092 -3.798988 -4.940578 4e-06 0.0 -1e-06 -14.630254 -5.725132 -35.221111 0.241392 0.326921 21.630589 3.75225 17.265518 8.357081 1.716024 -2.154977 -1.735214 -0.0 0.0 2e-06 -9.45508 -4.46476 26.489311 -0.355477 0.442664 19.489241 1.744491 -5.952452 17.040691 -1.529262 0.675036 -28.258709 0.0 0.0 -4e-06 
